<svg width="292" height="292" viewBox="0 0 292 292" fill="none" xmlns="http://www.w3.org/2000/svg">
<path d="M271.398 154.37C270.072 141.408 265.637 122.643 247.553 115.972C240.783 124.566 227.274 118.713 223.755 112.88C216.677 123.947 204.65 134.329 196.696 147.774C192.857 154.268 188.228 161.913 192.924 169.043C207.055 167.747 221.274 167.716 235.41 168.95C239.779 161.367 240.29 158.563 240.228 151.868C240.228 151.157 241.25 150.846 241.341 151.713C242.02 157.796 240.641 163.93 237.425 169.138C239.161 169.248 240.884 169.503 242.578 169.9C244.038 170.254 243.608 171.251 242.319 171.127C226.416 169.597 210.405 169.57 194.497 171.045C199.556 177.454 199.289 181.35 198.031 187.981C206.368 193.7 236.867 201.267 250.591 197.09C263.209 193.25 272.957 169.621 271.398 154.37Z" fill="#38A1FF"/>
<path d="M142.613 127.506C134.802 122.777 118.336 121.53 109.258 126.373C107.3 134.133 100.756 143.397 97.5207 146.333C92.7187 145.165 84.3617 141.254 81.2388 135.256C67.3688 139.687 53.8083 160.78 49.8006 174.928C44.2365 169.075 33.4982 153.845 31.2586 148.672C26.5301 151.894 21.1132 153.966 15.441 154.721C19.8414 185.381 39.8828 213.575 54.1032 212.519C65.4386 211.677 72.7751 199.68 77.1026 191.694C74.4572 188.745 72.1709 185.494 70.2917 182.007C69.9106 181.291 70.4377 179.936 71.3224 181.079C88.6964 203.563 112.962 217.352 145.198 219.206C129.073 197.227 123.601 149.157 142.613 127.506Z" fill="#38A1FF"/>
<path d="M98.0361 108.938C102.508 108.341 102.796 101.416 98.9938 99.3544C99.583 95.4202 99.8005 91.4392 99.6435 87.4642C99.4289 81.8169 96.3031 79.3262 91.1317 78.7261C86.5725 78.1936 82.3111 76.1895 78.9933 73.0175C73.2453 67.5235 73.676 76.1799 78.9933 79.9525C74.126 79.4104 69.3885 78.0334 64.989 75.882C61.9697 74.0687 60.4995 74.6907 61.1463 77.3143C61.4597 78.6642 62.067 79.9283 62.9251 81.0165C63.7831 82.1047 64.8707 82.9902 66.1103 83.6098C61.165 84.2622 56.1396 83.9298 51.3234 82.6316C47.1741 81.4636 45.1417 81.8476 47.3157 85.4655C49.103 88.0598 51.4169 90.2485 54.1065 91.8889C56.7962 93.5293 59.8013 94.5846 62.926 94.9861C70.0873 95.7672 77.8049 93.7597 86.1517 90.5346C87.1394 95.2438 89.7552 99.4543 93.5393 102.426C93.9875 102.781 94.6299 102.838 94.8533 102.188C96.1819 98.2463 101.286 102.188 99.3559 105.878C98.6829 107.164 97.7178 107.073 96.7805 107.084C95.8432 107.094 96.1512 107.66 96.2855 108.506C96.833 111.967 102.771 125.204 105.323 127.445C105.932 127.979 106.5 127.278 106.126 126.673C102.689 121.127 99.9707 115.168 98.0361 108.938Z" fill="#191919"/>
<path d="M72.9139 98.9019C72.199 99.0141 71.5262 99.312 70.9625 99.7657C70.3989 100.219 69.9642 100.813 69.7019 101.488C69.223 102.74 69.8771 103.28 70.7312 102.178C71.4846 101.382 72.4229 100.784 73.4628 100.438C74.314 100.098 74.387 98.6639 72.9139 98.9019Z" fill="#191919"/>
<path d="M71.1721 105.919C70.9472 106.558 71.4641 106.866 72.0174 106.393C72.3234 106.13 72.6817 105.934 73.0686 105.818C73.4556 105.703 73.8625 105.67 74.2629 105.723C75.0571 105.723 75.1141 105.051 74.479 104.692C74.1872 104.524 73.862 104.423 73.5265 104.395C73.1911 104.367 72.8536 104.413 72.5379 104.53C72.2223 104.647 71.9363 104.832 71.7003 105.072C71.4642 105.312 71.2839 105.601 71.1721 105.919Z" fill="#191919"/>
<path d="M83.3821 102.426C83.0691 102.231 82.7179 102.105 82.3521 102.058C81.9863 102.01 81.6146 102.041 81.262 102.15C80.9094 102.258 80.5842 102.441 80.3084 102.686C80.0326 102.931 79.8127 103.232 79.6635 103.57C79.4357 104.189 79.8445 104.507 80.2475 104.219C81.0532 103.627 82.0291 103.313 83.0288 103.323C83.5368 103.26 84.042 102.784 83.3821 102.426Z" fill="#191919"/>
<path d="M82.2798 114.379C81.7571 114.682 81.6958 115.482 82.7032 115.245C86.0831 114.442 87.9241 112.429 86.5868 109.897C86.2028 109.167 85.156 109.773 85.4845 110.504C86.5371 112.843 83.5427 113.648 82.2798 114.379Z" fill="#191919"/>
<path d="M82.344 97.3251C81.5601 96.9443 80.6925 96.7683 79.8222 96.8135C78.9518 96.8587 78.1071 97.1236 77.3669 97.5835C77.2251 97.6922 77.1254 97.8466 77.0847 98.0205C77.0441 98.1944 77.0649 98.3771 77.1437 98.5374C77.2226 98.6976 77.3545 98.8256 77.5171 98.8995C77.6797 98.9734 77.8629 98.9887 78.0355 98.9427C79.2918 98.445 80.6495 98.2577 81.9936 98.3967C82.8784 98.55 83.2361 97.8346 82.344 97.3251Z" fill="#191919"/>
<path d="M76.3244 105.208C75.9477 106.685 75.3564 111.468 77.1376 111.957C78.0662 112.213 80.8343 111.124 80.2912 110.175C79.8664 109.434 77.8837 110.843 77.6326 110.423C77.1217 108.72 76.9881 106.926 77.2413 105.167C77.2617 104.353 76.7215 103.645 76.3244 105.208Z" fill="#191919"/>
<path d="M165.386 132.648C165.233 129.228 161.264 124.776 158.007 124.756C157.245 124.756 156.658 125.868 157.423 126.07C159.087 126.513 160.603 127.391 161.816 128.613C163.029 129.836 163.896 131.358 164.327 133.025C164.58 133.913 165.447 134.04 165.386 132.648Z" fill="#191919"/>
<path d="M168.192 127.496C167.123 122.919 162.01 120.977 157.714 121.561C152.84 122.224 148.778 125.589 145.657 129.299C142.338 133.241 145.234 139.478 138.856 142.055C137.396 142.639 137.97 143.652 139.453 143.2C147.172 140.84 144.225 132.997 147.069 130.247C149.913 127.496 152.922 124.487 157.013 123.497C161.104 122.507 165.379 124.037 167.049 128C167.361 128.754 168.376 128.3 168.192 127.496Z" fill="#191919"/>
<path d="M160.336 135.04C160.952 136.354 161.86 135.875 161.521 134.602C160.704 131.512 157.902 127.132 154.112 127.575C153.35 127.664 153.482 128.845 154.112 129.017C158.496 130.209 159.363 132.951 160.336 135.04Z" fill="#191919"/>
<path d="M149.98 130.558C149.167 130.69 148.949 131.962 149.98 132C151.356 131.982 152.699 132.425 153.795 133.257C154.89 134.09 155.677 135.264 156.029 136.595C156.42 137.389 157.051 137.389 157.06 136.317C157.076 133.164 153.339 130.007 149.98 130.558Z" fill="#191919"/>
<path d="M14.6204 134.308C12.8319 127.351 12.4567 125.256 12.5604 120.809C12.5837 119.778 11.6639 120.025 11.3135 121.376C10.5603 125.993 11.2811 130.731 13.3736 134.916C13.7459 135.657 14.8175 135.07 14.6204 134.308Z" fill="#191919"/>
<path d="M8.50012 125.951C8.50012 124.766 7.34672 125.291 7.3146 126.043C7.18264 131.866 8.76298 137.599 11.8596 142.531C13.6273 145.557 14.9858 148.803 15.8994 152.186C16.1666 153.134 17.3375 153.288 17.1871 151.424C16.5538 147.875 15.2282 144.486 13.286 141.449C10.445 136.753 8.80151 131.431 8.50012 125.951Z" fill="#191919"/>
<path d="M28.8613 128.188C28.159 126.973 27.3181 127.842 27.832 128.772C31.1549 134.746 23.9601 142.318 28.8613 147.835C28.9837 147.947 29.1404 148.013 29.3056 148.024C29.4709 148.035 29.635 147.989 29.7708 147.895C29.9067 147.8 30.0062 147.662 30.0532 147.503C30.1002 147.344 30.0917 147.174 30.0293 147.021C26.829 140.89 32.3565 134.231 28.8613 128.188Z" fill="#191919"/>
<path d="M21.4941 120.742C21.4795 120.062 20.6064 119.443 20.3407 120.742C19.8312 123.224 20.1246 130.636 21.7306 132.695C21.8232 132.808 21.9503 132.888 22.0925 132.923C22.2347 132.957 22.3842 132.944 22.5184 132.886C22.6526 132.828 22.7641 132.727 22.8359 132.6C22.9077 132.472 22.9359 132.325 22.9162 132.18C22.0991 128.418 21.6232 124.59 21.4941 120.742Z" fill="#191919"/>
<path d="M17.2689 118.913C17.2689 118.151 16.3929 118.059 16.1155 118.913C15.0146 122.379 15.4205 129.708 17.4645 132.929C17.9025 133.628 19.1202 133.342 18.9245 132.423C17.6743 128.033 17.1157 123.475 17.2689 118.913Z" fill="#191919"/>
<path d="M188.406 171.842C189.168 172.153 189.371 170.95 188.921 170.528C186.314 168.056 178.616 167.725 174.742 170.632C174.596 170.71 174.487 170.841 174.436 170.998C174.386 171.155 174.397 171.325 174.469 171.474C174.541 171.623 174.667 171.738 174.821 171.796C174.975 171.854 175.146 171.85 175.298 171.785C181.903 169.198 185.324 170.594 188.406 171.842Z" fill="#191919"/>
<path d="M182.697 183.172C189.454 182.058 190.037 183.91 192.167 184.058C192.362 184.074 192.557 184.013 192.708 183.887C192.859 183.761 192.954 183.58 192.973 183.385C193.135 181.59 186.176 180.126 182.274 182.039C181.504 182.415 181.955 183.294 182.697 183.172Z" fill="#191919"/>
<path d="M178.792 179.916C185.709 177.771 188.058 179.126 191.92 180.183C192.691 180.395 192.889 179.254 192.373 178.834C189.655 176.613 182.153 176.635 178.39 178.771C177.72 179.152 177.956 180.174 178.792 179.916Z" fill="#191919"/>
<path d="M176.73 176.308C182.915 174.429 185.655 175.336 189.787 176.016C189.948 176.041 190.113 176.012 190.257 175.935C190.401 175.858 190.516 175.736 190.585 175.588C190.653 175.439 190.672 175.273 190.637 175.113C190.603 174.953 190.518 174.809 190.394 174.702C187.749 172.4 179.31 172.698 176.174 175.187C175.492 175.733 175.948 176.546 176.73 176.308Z" fill="#191919"/>
<path d="M278.291 82.7338C275.063 84.3334 271.467 85.0449 267.873 84.7953C263.988 92.3581 258.274 105.539 247.908 104.244C244.518 103.822 242.598 101.217 240.571 98.7821C240.014 98.1135 239.39 98.7237 239.695 99.3807C240.796 101.731 242.463 103.771 244.549 105.316C243.518 107.506 242.487 113.302 242.962 115.445C242.989 115.576 243.061 115.694 243.165 115.779C243.269 115.863 243.399 115.909 243.533 115.909C243.667 115.909 243.797 115.863 243.901 115.779C244.005 115.694 244.077 115.576 244.105 115.445C244.173 114.434 244.328 113.431 244.569 112.446C251.524 113.889 260.592 118.724 265.529 126.779C280.037 123.688 281.314 107.551 273.081 101.451C283.166 98.8814 282.774 86.1969 278.291 82.7338Z" fill="#191919"/>
<path d="M253.561 89.9156C254.729 90.2207 255.897 87.546 254.931 86.9386C253.646 86.14 251.971 89.498 253.561 89.9156Z" fill="#191919"/>
<path d="M260.527 93.148C261.393 93.202 262.353 91.4471 262.124 90.7565C261.461 88.768 258.477 93.0224 260.527 93.148Z" fill="#191919"/>
<path d="M262.835 86.5152C263.562 86.9491 264.132 87.6025 264.463 88.3811C264.659 89.0819 265.606 89.3082 265.596 88.0614C265.536 87.4105 265.296 86.7891 264.903 86.2668C264.51 85.7444 263.98 85.3416 263.371 85.1034C262.266 84.6888 261.35 85.6436 262.835 86.5152Z" fill="#191919"/>
<path d="M257.178 84.0639C258.506 84.5019 258.93 83.3616 257.878 82.5893C257.077 82.0943 256.15 81.8417 255.208 81.8619C254.266 81.8821 253.351 82.1743 252.571 82.7032C252.076 83.2288 252.345 83.7339 253.009 83.6303C254.409 83.3166 255.872 83.4688 257.178 84.0639Z" fill="#191919"/>
<path d="M246.966 94.754C246.864 95.2786 246.869 95.8184 246.98 96.3412C247.091 96.8639 247.306 97.3589 247.613 97.7965C247.92 98.2342 248.312 98.6055 248.765 98.8882C249.219 99.1709 249.725 99.3593 250.253 99.4421C250.325 99.4922 250.408 99.5249 250.494 99.5377C250.581 99.5504 250.67 99.5427 250.753 99.5153C250.837 99.4879 250.913 99.4415 250.975 99.3798C251.037 99.318 251.084 99.2426 251.113 99.1595C251.141 99.0764 251.15 98.9878 251.138 98.9008C251.126 98.8139 251.094 98.7308 251.045 98.6583C250.995 98.5857 250.93 98.5256 250.853 98.4828C250.776 98.4399 250.691 98.4154 250.603 98.4113C250.25 98.323 249.919 98.1634 249.63 97.9424C249.341 97.7213 249.1 97.4435 248.922 97.126C248.744 96.8085 248.634 96.458 248.596 96.096C248.559 95.7341 248.596 95.3683 248.705 95.0212C249.15 92.472 247.257 92.9874 246.966 94.754Z" fill="#191919"/>
<path d="M256.652 96.9031C257.868 96.3264 258.951 91.6048 258.341 90.977C257.397 90.0061 257.319 94.132 255.972 95.3059C255.388 95.811 254.658 94.3569 253.912 94.7905C252.996 95.3219 254.993 97.6871 256.652 96.9031Z" fill="#191919"/>
<path d="M181.43 229.294C180.142 230.429 182.268 231.938 183.49 231.149C198.09 221.72 214.013 231.53 210.344 248.285C210.227 248.643 210.255 249.032 210.421 249.37C210.588 249.708 210.88 249.967 211.235 250.093C211.59 250.218 211.981 250.199 212.322 250.041C212.664 249.882 212.93 249.596 213.064 249.244C220.543 230.403 196.45 216.042 181.43 229.294Z" fill="#191919"/>
<path d="M214.023 223.884C201.66 212.934 176.194 212.167 163.361 223.019C136.351 245.863 161.142 284.214 195.428 277.508C221.397 272.436 233.512 241.139 214.023 223.884ZM198.875 273.645C170.205 282.91 140.329 252.857 162.242 228.037C173.359 215.443 198.554 214.911 211.344 225.358C229.106 239.868 220.193 266.755 198.875 273.645Z" fill="#191919"/>
<path d="M241.268 84.388C241.725 85.7779 241.706 86.2451 243.648 85.0275C246.679 83.1295 249.583 81.452 251.406 75.3214C254.456 78.5777 258.359 80.9127 262.67 82.061C266.981 83.2093 271.528 83.1248 275.794 81.817C284.604 79.0955 292.704 58.8585 269.808 57.416C270.57 45.3286 250.126 45.2469 247.86 54.9632C240.501 49.6459 231.372 53.9412 230.166 58.6833C237.38 78.3655 231.197 97.7368 226.044 108.227C224.602 111.164 226.482 110.709 226.92 109.845C230.229 103.229 232.813 96.7352 237.432 90.8018C238.238 89.7667 237.526 89.3695 236.65 88.9578C236.328 88.772 236.047 88.5229 235.824 88.2256C235.601 87.9283 235.44 87.589 235.351 87.2279C235.262 86.8669 235.248 86.4917 235.308 86.1248C235.368 85.758 235.502 85.407 235.701 85.0932C236.897 82.363 240.38 81.7002 241.268 84.388Z" fill="#191919"/>
<path d="M91.6062 117.666C90.8146 119.049 89.7166 120.233 88.3966 121.126C87.0765 122.019 85.5694 122.598 83.9909 122.818C72.2233 124.25 69.4566 107.177 67.6476 99.0362C67.3483 97.6857 66.5045 98.4171 66.6169 99.1822C67.4724 108.22 71.0582 125.51 83.1047 124.666C83.645 127.915 83.7383 131.223 83.3821 134.497C83.3018 135.289 84.1354 136.084 84.753 134.393C85.5064 132.333 85.4232 127.093 84.9793 124.357C86.5959 123.934 88.1055 123.176 89.4104 122.132C90.7153 121.089 91.7862 119.782 92.5538 118.298C92.9801 117.477 92.034 116.946 91.6062 117.666Z" fill="#191919"/>
<path d="M158.43 215.125C165.644 213.665 184.909 207.259 190.529 202.39C191.444 201.595 190.404 199.916 189.292 200.452C175.13 207.262 168.683 208.695 154.37 212.972C138.666 191.466 131.832 165.601 150.795 139.337C151.776 137.977 149.783 136.723 148.733 138.059C132.162 159.163 132.235 185.985 150.021 212.25C152.821 216.385 153.008 216.226 158.43 215.125Z" fill="#191919"/>
<path d="M83.7529 33.9216C114.912 14.016 152.625 10.3397 186.283 26.426C224.015 44.4643 237.792 74.7155 215.259 112.376C206.278 127.386 185.803 145.728 183.202 161.229C182.91 162.959 185.275 163.643 185.582 161.888C188.111 147.409 206.943 130.45 215.527 117.212C239.23 80.6416 231.318 48.1625 193.335 27.0377C159.423 8.18329 113.973 8.75999 82.636 32.4894C81.468 33.3771 82.3834 34.7976 83.7529 33.9216Z" fill="#191919"/>
<path d="M173.66 81.9921C184.338 93.4575 178.139 109.316 166.828 117.769C165.602 118.686 167.065 120.479 168.434 119.469C179.862 111.051 186.976 95.7716 178.079 82.8068C165.596 64.6211 137.573 68.2565 120.374 82.5148C109.804 71.0903 94.024 51.941 84.6712 39.2287C83.7018 37.9147 82.3732 38.8988 83.4653 40.3967C92.745 53.1907 106.605 71.5093 117.274 83.6741C119.243 85.9195 119.796 86.5269 122.199 84.6231C136.171 73.5592 159.781 67.0899 173.66 81.9921Z" fill="#191919"/>
<path d="M205.974 51.7074C187.946 26.0289 144.715 17.8777 117.356 32.2222C116.981 32.3935 116.69 32.7066 116.545 33.0927C116.401 33.4788 116.416 33.9064 116.586 34.2817C116.757 34.657 117.069 34.9493 117.455 35.0945C117.841 35.2396 118.268 35.2258 118.644 35.0561C152.186 22.2271 179.818 31.6368 204.099 53.4696C205.553 54.7778 207.174 53.4185 205.974 51.7074Z" fill="#191919"/>
<path d="M192.095 197.339C193.689 200.124 196.072 198.653 194.392 195.98C192.711 193.307 190.923 190.362 189.127 187.592C188.458 186.56 186.633 187.592 187.241 188.705C188.83 191.599 190.448 194.478 192.095 197.339Z" fill="#191919"/>
</svg>
