<svg width="303" height="303" viewBox="0 0 303 303" fill="none" xmlns="http://www.w3.org/2000/svg">
<path d="M26.714 128.26C56.0293 127.992 85.2294 128.328 114.584 127.748C114.747 127.72 114.913 127.726 115.073 127.766C115.233 127.806 115.383 127.879 115.513 127.981C115.643 128.083 115.75 128.211 115.828 128.357C115.905 128.502 115.951 128.663 115.962 128.828C115.974 128.992 115.95 129.157 115.894 129.312C115.837 129.468 115.749 129.609 115.634 129.728C115.52 129.846 115.381 129.94 115.228 130.002C115.075 130.064 114.911 130.093 114.746 130.087C85.7278 130.664 55.8808 131.323 26.8761 130.555C25.2005 130.511 24.9975 128.275 26.714 128.26ZM92.6029 83.825C97.4918 105.597 67.522 117.753 53.8855 103.974C47.624 97.6509 46.6484 87.3595 50.0511 79.4012C58.6047 59.4047 88.4124 65.1541 92.6029 83.825ZM89.8895 81.3737C88.9638 78.9929 87.5467 76.8339 85.7307 75.0374C83.9146 73.2409 81.7404 71.8473 79.3496 70.9475C66.5676 66.4706 54.19 69.0355 50.4904 83.325C48.5361 90.8682 50.6419 100.005 57.267 104.641C72.4912 115.292 97.7493 100.501 89.8895 81.3737ZM27.7866 62.6847C27.7866 61.9575 26.6064 61.9756 26.5398 62.6756C24.949 79.4178 25.7368 96.9585 25.7959 113.796C25.805 116.319 26.6867 116.504 28.2654 116.608C53.3583 118.259 87.8139 117.334 112.857 116.223C113.766 116.182 113.787 114.646 112.857 114.628C84.8779 114.105 55.446 116.029 27.9169 114.378C28.3502 97.4918 27.876 79.6693 27.7866 62.6847ZM115.361 114.914C115.457 115.66 116.935 115.76 116.92 114.925C116.593 97.3418 116.743 79.6254 116.288 62.0984C116.226 59.6895 116.184 59.8925 113.57 59.791C86.764 58.7472 56.8686 59.2623 30.1727 60.8C29.97 60.8094 29.7794 60.899 29.6427 61.049C29.5061 61.1991 29.4346 61.3972 29.444 61.5999C29.4535 61.8026 29.5431 61.9933 29.6931 62.1299C29.8431 62.2666 30.0412 62.3381 30.2439 62.3286C58.2427 62.2317 86.5429 61.1015 114.51 62.0075C113.49 75.9379 113.625 101.258 115.361 114.914ZM79.9375 87.9685C76.6484 86.0399 72.0261 83.019 68.3401 80.9995C65.8798 79.6527 65.6874 81.4964 67.4493 82.7145C69.9324 84.4325 74.541 86.6353 77.7241 88.8578C74.0729 91.1091 70.5733 93.4816 66.857 95.7238C66.3252 90.8273 66.0782 86.0066 65.3768 81.0949C65.2526 80.2147 64.0285 80.4723 64.0512 81.307C64.2027 86.7459 64.9465 92.0878 65.1314 97.4539C65.1553 97.5984 65.2119 97.7355 65.2969 97.8548C65.3819 97.9741 65.4929 98.0725 65.6217 98.1423C65.7504 98.2122 65.8934 98.2517 66.0397 98.2579C66.1861 98.2641 66.3319 98.2368 66.4661 98.1781C71.2613 95.6656 75.8437 92.7664 80.1677 89.5093C80.2809 89.4052 80.3668 89.275 80.4179 89.13C80.4691 88.9851 80.484 88.8298 80.4613 88.6778C80.4385 88.5258 80.3789 88.3816 80.2876 88.258C80.1963 88.1343 80.0761 88.0349 79.9375 87.9685ZM170.775 74.4244C174.781 74.1668 174.643 71.5777 170.515 71.8656C157.892 72.7473 144.97 72.5064 132.32 72.1822C126.754 72.0398 126.201 74.3517 131.914 74.5683C144.269 75.0365 158.484 75.2137 170.775 74.4244ZM183.164 118.591C183.383 114.43 183.357 110.259 183.086 106.1C183.029 105.467 181.874 105.38 181.767 106.023C181.226 109.259 181.911 115.146 181.779 118.661C181.753 119.417 183.12 119.352 183.164 118.591ZM28.3184 31.4196C44.3138 31.3726 163.497 30.6045 169.803 30.8591C183.673 31.4211 184.498 47.6756 182.832 47.9331C181.059 48.2088 15.8484 47.1347 14.1062 46.9938C12.8911 46.8968 12.3215 31.4666 28.3184 31.4196ZM170.939 43.2745C171.386 43.2063 171.813 43.0404 172.189 42.7886C172.565 42.5369 172.881 42.2054 173.115 41.8177C173.348 41.43 173.493 40.9957 173.54 40.5456C173.586 40.0955 173.533 39.6406 173.384 39.2133C173.235 38.7861 172.994 38.3968 172.677 38.0734C172.361 37.7499 171.977 37.5 171.553 37.3416C171.129 37.1832 170.676 37.1201 170.225 37.1568C169.774 37.1935 169.336 37.329 168.944 37.5538C168.372 37.9414 167.944 38.5072 167.726 39.1633C167.509 39.8193 167.515 40.5287 167.742 41.1812C167.97 41.8337 168.407 42.3927 168.985 42.7713C169.563 43.1499 170.25 43.3268 170.939 43.2745ZM157.136 42.2579C157.6 42.8072 158.24 43.1789 158.947 43.3101C159.655 43.4412 160.385 43.3237 161.016 42.9775C161.595 42.5837 162.031 42.0137 162.26 41.352C162.489 40.6904 162.498 39.9726 162.287 39.3052C162.04 38.6418 161.577 38.081 160.972 37.7132C160.367 37.3454 159.656 37.1921 158.954 37.2781C158.419 37.362 157.917 37.5875 157.499 37.9312C157.081 38.2748 156.763 38.7241 156.578 39.2323C156.392 39.7406 156.346 40.2892 156.444 40.8213C156.542 41.3533 156.781 41.8494 157.136 42.2579ZM145.72 42.4473C146.231 42.8768 146.861 43.1389 147.526 43.198C148.19 43.2571 148.857 43.1103 149.435 42.7776C149.911 42.4982 150.299 42.0924 150.558 41.6053C150.817 41.1181 150.935 40.5688 150.901 40.0183C150.866 39.4679 150.679 38.9378 150.361 38.4872C150.043 38.0366 149.606 37.6831 149.099 37.466C148.423 37.2659 147.702 37.2777 147.033 37.4998C146.364 37.7219 145.779 38.1437 145.357 38.7083C144.968 39.2746 144.791 39.9601 144.857 40.644C144.924 41.328 145.229 41.9665 145.72 42.4473ZM181.752 51.6115C182.018 64.8966 180.843 78.1877 181.547 91.5666C181.588 92.3499 182.91 92.2953 182.895 91.5363C182.682 78.3558 184.071 64.7208 183.127 51.5812C183.071 50.7904 181.736 50.8328 181.752 51.6115ZM172.166 61.0636C157.275 61.759 142.681 60.7697 127.855 60.7606C127.272 60.7606 127.163 61.8211 127.731 62.062C132.29 64.0315 165.482 63.8058 172.23 63.2982C172.511 63.2685 172.77 63.1338 172.956 62.9212C173.141 62.7086 173.24 62.4337 173.232 62.1515C173.224 61.8692 173.11 61.6004 172.912 61.3987C172.715 61.197 172.448 61.0774 172.166 61.0636ZM24.6248 149.493C35.2435 149.549 46.3772 150.524 54.8354 149.906C55.6051 149.85 55.7081 148.55 54.9021 148.528C44.891 148.24 35.3056 147.596 25.8323 147.387C19.4208 147.244 15.8515 144.695 15.197 138.001C13.1184 116.717 15.7196 55.0778 15.2727 49.8284C15.2619 49.6447 15.1856 49.4711 15.0577 49.3388C14.9299 49.2066 14.7589 49.1245 14.5757 49.1075C14.3926 49.0905 14.2094 49.1396 14.0593 49.246C13.9092 49.3524 13.8023 49.509 13.7577 49.6875C13.3366 51.7782 12.6881 77.2953 12.4609 97.0388C12.3185 109.548 11.764 126.828 13.076 138.874C13.7729 145.261 18.0694 149.458 24.6248 149.493ZM139.892 147.428C121.721 148.547 100.82 147.811 82.0751 148.284C81.2691 148.305 81.2661 149.684 82.0842 149.705C100.648 150.2 121.383 149.362 139.906 149.382C141.015 149.379 141.016 147.358 139.892 147.428ZM130.534 85.0097C128.387 85.5187 128.669 86.9065 130.837 86.908C134.267 86.908 137.973 86.5217 141.527 86.4808C143.799 86.455 144.772 84.6628 141.072 84.3749C137.547 84.2097 134.014 84.423 130.534 85.0112V85.0097ZM188.769 176.455C187.156 171.683 184.705 167.237 181.529 163.326C181.074 162.72 181.832 161.791 182.467 162.317C186.453 165.961 189.224 170.741 190.407 176.011C195.139 174.74 200.118 174.7 204.87 175.896C209.621 177.093 213.988 179.485 217.554 182.845C218.493 158.546 198.135 142.034 177.861 140.534C174.873 147.476 161.734 150.196 159.283 143.004C149.056 145.036 134.32 152.397 129.034 161.164C134.014 160.944 139.005 161.147 143.951 161.77C145.46 161.946 146.864 162.63 147.933 163.71C149.002 164.789 149.672 166.2 149.834 167.711C150.084 173.267 150.753 178.797 151.835 184.253C154.432 177.531 160.561 175.842 166.033 175.717C170.78 175.607 182.274 178.003 188.769 176.455ZM184.877 127.725C193.763 125.865 202.886 125.414 211.912 126.387C220.732 127.312 226.314 128.481 228.397 138.16C231.504 152.607 228.268 175.843 223.291 189.749C219.007 201.718 211.159 200.586 200.687 201.381C199.883 201.442 199.668 202.828 200.553 202.857C210.515 203.183 218.93 202.789 223.499 194.676C230.542 182.174 233.095 154.226 231.03 139.922C229.676 130.551 225.697 126.04 216.139 124.795C206.34 123.518 193.891 123.241 184.444 126.293C184.254 126.352 184.095 126.483 184.002 126.658C183.908 126.833 183.889 127.038 183.947 127.228C184.005 127.418 184.136 127.577 184.311 127.67C184.487 127.763 184.692 127.783 184.882 127.725H184.877ZM229.859 130.248C236.267 132.564 243.2 135.052 247.859 140.28C258.345 152.05 252.738 171.39 250.131 185.145C247.228 200.422 244.457 215.724 241.567 231.001C240.658 235.778 242.476 237.263 243.321 232.992C246.351 217.749 249.199 202.433 252.108 187.165C254.873 172.671 260.548 153.4 250.923 140.351C246.019 133.703 237.97 131.126 230.356 128.989C229.541 128.76 229.029 129.945 229.863 130.248H229.859ZM192.817 265.537C192.458 267.026 194.688 267.446 195.056 265.875C198.365 251.825 202.858 235.12 204.458 221.182C205.726 210.141 204.822 203.028 192.338 201.842C182.315 200.891 174.022 204.917 172.198 215.454C169.813 229.227 171.236 251.481 171.731 266.183C171.737 266.362 171.813 266.532 171.941 266.657C172.069 266.782 172.241 266.853 172.42 266.855C172.6 266.857 172.773 266.79 172.904 266.668C173.035 266.545 173.114 266.377 173.124 266.198C173.548 251.493 172.878 236.363 173.758 221.798C174.364 211.82 176.752 204.433 188.302 203.849C200.989 203.21 203.525 208.047 202.412 219.866C200.992 234.863 195.156 255.874 192.822 265.534L192.817 265.537ZM254.326 243.57C255.69 240.952 260.242 236.298 262.89 236.279C265.095 236.267 263.678 240.597 264.377 243.038C270.064 243.538 271.114 243.47 274.927 247.19C275.415 247.665 276.001 247.416 275.585 246.721C274.716 245.224 273.492 243.965 272.02 243.055C273.959 240.138 277.019 238.438 277.943 238.564C279.678 238.802 277.509 244.662 278.624 249.308C279.381 252.446 280.728 256.091 279.425 259.771C278.412 262.633 276.78 265.239 271.85 266.798C267.323 268.228 258.753 267.14 254.893 264.998C260.53 261.575 258.482 253.169 249.836 255.932C238.114 259.679 232.21 260.524 219.875 258.453C219.005 258.301 218.802 259.271 219.708 259.442C229.602 261.542 239.875 260.98 249.481 257.814C254.159 256.337 257.458 259.27 255.217 262.383C252.944 265.539 246.862 266.705 243.174 267.266C233.846 268.416 224.409 268.359 215.095 267.096C205.551 265.946 210.43 241.605 235.305 238.281C241.696 237.424 248.189 238.719 253.762 241.961C251.852 245.173 250.669 248.766 250.299 252.485C250.248 253.208 251.04 253.04 251.208 252.334C251.866 249.287 252.919 246.34 254.338 243.565L254.326 243.57ZM229.366 241.244C227.245 242.358 225.205 246.589 226.174 250.442C226.37 251.216 227.15 251.292 227.148 250.475C227.148 246.839 228.474 245.362 230.153 242.615C230.704 241.729 230.247 240.784 229.379 241.24L229.366 241.244ZM236.758 239.515C234.791 240.872 233.378 242.891 232.778 245.204C232.054 247.462 231.987 249.879 232.586 252.173C232.754 252.913 233.548 252.857 233.596 252.125C233.771 249.449 234.221 245.653 236.164 243.168C236.767 242.392 237.318 241.576 237.811 240.726C238.381 239.776 237.494 239.12 236.77 239.511L236.758 239.515ZM243.033 241.002C241.596 242.252 240.493 243.842 239.826 245.627C239.16 247.412 238.95 249.335 239.215 251.222C239.367 251.979 240.168 252.107 240.259 251.278C240.678 248.019 242.206 245.004 244.586 242.739C246.739 240.565 245.033 239.246 243.045 240.997L243.033 241.002ZM272.708 254.906C273.082 254.685 273.526 254.608 273.953 254.692C274.38 254.776 274.762 255.014 275.026 255.361C275.619 256.179 276.253 255.718 275.915 254.706C275.764 254.359 275.53 254.053 275.233 253.816C274.937 253.58 274.587 253.42 274.214 253.35C273.841 253.279 273.457 253.302 273.095 253.414C272.733 253.527 272.404 253.727 272.136 253.996C272.042 254.083 271.981 254.201 271.965 254.329C271.948 254.456 271.978 254.586 272.047 254.694C272.117 254.802 272.223 254.882 272.346 254.92C272.469 254.958 272.601 254.952 272.72 254.902L272.708 254.906ZM266.785 256.741C266.881 257.45 268.141 258.894 268.94 258.862C269.878 258.818 271.193 257.835 271.1 256.893C271.008 255.95 266.658 255.696 266.792 256.736L266.785 256.741ZM262.109 254.555C262.441 254.202 262.885 253.975 263.365 253.911C263.845 253.846 264.333 253.949 264.746 254.202C265.528 254.782 266.226 254.059 265.56 253.388C265.264 253.081 264.9 252.848 264.497 252.707C264.094 252.567 263.664 252.523 263.241 252.58C262.818 252.637 262.415 252.792 262.063 253.034C261.712 253.276 261.422 253.597 261.218 253.972C260.815 254.646 261.663 254.988 262.121 254.55L262.109 254.555ZM95.4162 182.618C95.7359 179.944 95.898 178.629 93.0468 178.491C84.8567 178.094 79.0345 180.158 74.0078 184.074C71.1684 186.244 68.8117 188.981 67.0874 192.11C65.3631 195.24 64.309 198.695 63.9921 202.254C63.9702 202.426 64.0155 202.6 64.1186 202.74C64.2217 202.879 64.3746 202.974 64.5456 203.003C64.7166 203.033 64.8924 202.996 65.0365 202.899C65.1806 202.802 65.2819 202.654 65.3192 202.484C66.3908 195.849 69.863 189.838 75.0758 185.595C80.465 181.388 87.2879 179.461 94.0815 180.226C93.5898 187.322 90.6749 194.034 85.8248 199.238C80.0678 205.372 75.291 206.737 67.6523 208.467C67.499 208.512 67.3666 208.61 67.2791 208.744C67.1916 208.877 67.1547 209.038 67.1749 209.196C67.1952 209.355 67.2714 209.501 67.3897 209.608C67.508 209.716 67.6608 209.777 67.8205 209.782C74.4683 209.699 82.5008 205.176 87.014 200.444C91.6073 195.525 94.5454 189.292 95.4162 182.618ZM152.963 266.236C150.724 261.325 145.16 255.025 139.101 256.249C135.314 257.006 131.146 261.059 129.296 264.342C128.324 266.067 128.761 268.049 130.944 268.323C136.005 268.779 141.09 268.911 146.167 268.719C151.893 268.788 157.61 268.256 163.225 267.132C164.102 266.902 163.667 265.707 162.899 265.692C159.599 265.628 156.272 265.998 152.963 266.236ZM108.648 268.307C114.354 268.629 122.132 268.61 127.537 267.273C128.377 267.066 128.002 265.875 127.234 265.875C126.466 265.875 125.665 265.902 124.881 265.93C123.654 262.924 122.154 259.87 119.191 258.247C114.422 255.641 109.386 259.403 106.109 262.718C101.879 267.002 104.279 268.06 108.648 268.307ZM47.3483 200.851C47.5381 200.841 47.7165 200.757 47.8463 200.618C47.976 200.479 48.0471 200.296 48.0448 200.105C48.0425 199.915 47.9668 199.733 47.8337 199.598C47.7005 199.462 47.5201 199.383 47.3301 199.377C39.6962 199.58 32.1321 197.876 25.3217 194.421C15.2576 189.01 9.24151 180.891 5.51461 170.347C11.6988 169.579 21.6569 169.107 30.3606 171.583C43.5411 175.329 48.9421 184.309 51.4267 196.912C51.5782 197.686 52.9023 197.595 52.8311 196.777C50.6434 171.447 27.9063 166.209 6.18575 168.541C3.78599 168.8 3.29059 168.935 4.24504 171.453C6.41261 177.642 9.78243 183.342 14.1607 188.225C22.2145 196.629 35.5874 202.356 47.3483 200.851ZM298.563 269.952C263.087 269.043 27.2836 270.008 11.8382 270.57C11.1019 270.597 11.0807 271.846 11.8276 271.868C30.5015 272.446 49.2314 272.083 67.9114 272.044C86.5913 272.005 277.587 272.139 298.55 271.491C299.423 271.465 299.438 269.973 298.563 269.952ZM72.8851 266.605C74.9453 256.451 76.48 246.198 77.4832 235.886C79.6269 235.722 79.8738 235.492 80.3117 233.243C80.7215 231.399 81.013 229.531 81.1843 227.65C81.351 224.971 81.7388 223.802 78.677 223.737C66.0631 223.46 50.7086 223.341 38.2432 224.191C38.0727 224.203 37.9134 224.28 37.7985 224.406C37.6837 224.533 37.6222 224.699 37.6271 224.869C37.632 225.04 37.7029 225.202 37.8248 225.322C37.9467 225.441 38.1102 225.509 38.281 225.511C51.8675 226.367 66.3509 224.678 79.489 225.837C79.4697 228.586 79.1487 231.325 78.5315 234.004C65.048 234.939 52.2327 234.805 38.7522 234.64C37.8601 231.838 37.189 228.97 36.7448 226.062C36.6145 225.293 35.3162 225.32 35.3359 226.138C35.4442 229.099 35.9936 232.027 36.966 234.825C37.4554 236.292 38.5295 236.523 40.0945 236.513C52.2145 236.431 63.7436 236.775 75.9151 235.998C74.6577 247.84 72.7336 255.629 71.4459 264.664C70.9899 267.852 72.5321 268.485 72.8851 266.605ZM104.927 205.467C105.639 205.483 105.927 204.334 105.167 204.18C100.584 203.246 95.4147 202.924 91.5484 206.061C86.7201 209.979 88.5411 218.018 89.3986 223.494C91.0151 233.807 96.3676 256.088 100.44 266.769C100.778 267.655 102.223 267.072 101.975 266.208C98.7341 254.879 93.9618 238.62 91.4212 223.296C90.7985 219.536 89.4274 213.133 91.1182 209.681C93.6043 204.636 100.293 205.363 104.927 205.467ZM40.0505 239.137C40.452 244.936 43.3275 261.256 45.4561 266.296C45.5396 266.456 45.6765 266.582 45.8431 266.652C46.0097 266.722 46.1956 266.732 46.3684 266.679C46.5412 266.626 46.6902 266.515 46.7895 266.364C46.8888 266.213 46.9321 266.032 46.912 265.852C44.7137 256.921 43.173 250.248 41.3989 238.905C41.2656 238.052 39.996 238.3 40.0505 239.137ZM57.3215 183.459C57.4145 183.604 57.56 183.708 57.7277 183.749C57.8953 183.789 58.0722 183.764 58.2214 183.677C58.3706 183.591 58.4807 183.45 58.5287 183.284C58.5767 183.119 58.5589 182.941 58.479 182.788C54.8437 176.305 53.6608 168.73 55.146 161.448C56.2853 156.309 58.7833 151.572 62.3791 147.729C65.975 143.886 70.5367 141.079 75.5879 139.601C77.3974 146.105 77.8654 152.909 76.9635 159.599C75.2001 171.136 70.6217 177.264 63.3649 185.634C62.8271 186.256 63.6967 187.215 64.3602 186.695C69.0446 183.083 73.3154 176.282 75.5849 170.848C79.5602 161.332 80.5101 149.388 77.1362 139.519C76.5045 137.668 76.3121 137.532 74.4895 138.101C68.0216 140.152 62.387 144.232 58.4214 149.738C54.9239 154.621 52.9525 160.432 52.7561 166.435C52.5598 172.438 54.1475 178.365 57.3185 183.467L57.3215 183.459ZM57.6018 221.879C57.6185 222.728 59.0683 222.74 59.0986 221.879C59.1259 221.131 59.1552 220.382 59.1865 219.631C65.8964 205.383 72.5549 197.608 84.7476 187.795C85.3233 187.331 84.5961 186.244 83.9174 186.583C74.7016 191.208 63.63 205.866 59.388 215.416C60.3637 194.458 62.0832 179.39 67.3705 158.401C67.5645 157.634 66.2722 157.277 66.0192 158.042C61.0545 173.105 58.5032 193.426 57.7427 209.297C52.0342 196.382 40.3854 186.045 27.526 180.606C26.7155 180.264 26.2762 181.515 27.0609 181.882C40.9989 188.245 51.2282 199.666 57.6003 213.412C57.5352 216.23 57.5458 219.048 57.5988 221.879H57.6018Z" fill="#38A1FF"/>
<path d="M161.976 185.359C160.734 186.978 159.696 187.162 158.896 189.47C158.295 191.271 158.374 193.229 159.117 194.976C159.186 195.132 159.191 195.308 159.133 195.468C159.074 195.628 158.957 195.759 158.804 195.834C158.651 195.909 158.475 195.922 158.313 195.871C158.15 195.819 158.014 195.707 157.933 195.558C157.357 194.568 156.993 193.469 156.864 192.331C156.736 191.192 156.845 190.04 157.186 188.946C157.719 187.234 159.396 184.654 161.255 184.265C161.392 184.241 161.534 184.257 161.662 184.312C161.789 184.367 161.899 184.458 161.975 184.575C162.052 184.691 162.093 184.827 162.093 184.967C162.093 185.106 162.053 185.242 161.976 185.359ZM166.267 188.895C166.343 188.8 166.393 188.687 166.411 188.567C166.43 188.447 166.416 188.325 166.371 188.212C166.326 188.099 166.252 188 166.156 187.926C166.06 187.851 165.946 187.803 165.826 187.787C163.875 187.716 162.244 190.389 161.952 192.079C161.769 193.117 161.892 194.186 162.308 195.155C162.723 196.124 163.413 196.951 164.291 197.533C164.431 197.633 164.605 197.676 164.775 197.652C164.946 197.627 165.101 197.539 165.208 197.404C165.315 197.269 165.367 197.099 165.352 196.927C165.337 196.755 165.256 196.596 165.127 196.482C164.568 195.956 164.141 195.304 163.885 194.58C163.628 193.856 163.548 193.081 163.652 192.32C164.052 190.025 165.638 189.511 166.267 188.895ZM215.262 182.467C215.11 181.586 213.747 181.686 213.747 182.527C213.785 188.304 211.836 194.312 201.804 196.3C190.778 198.333 179.393 196.026 170.028 189.861C169.892 189.765 169.723 189.727 169.558 189.754C169.393 189.782 169.246 189.873 169.147 190.008C169.049 190.144 169.008 190.312 169.033 190.477C169.059 190.643 169.148 190.791 169.282 190.892C178.362 197.891 190.946 200.309 202.134 198.215C210.499 196.647 216.851 191.932 215.262 182.467ZM172.893 199.548C171.718 199.659 155.192 200.142 154.066 199.579C152.941 199.015 148.461 184.644 147.375 170.744C147.063 166.739 146.435 164.894 141.557 164.176C137.606 163.593 106.471 163.884 103.703 164.176C101.325 164.426 99.5173 165.361 99.7143 170.121C100.182 181.438 106.156 202.693 109.377 204.425C112.88 206.302 168.601 205.82 172.752 204.987C176.176 204.299 175.552 199.298 172.893 199.548ZM123.685 180.124C119.246 180.285 120.418 189.669 125.75 189.46C130.516 189.278 129.299 179.921 123.685 180.124ZM132.293 245.532C132.088 244.774 130.91 245.068 130.963 245.822C131.093 247.648 132.334 253.959 132.9 256.906C133.014 257.5 134.035 257.188 134.135 256.643C134.37 255.356 132.758 247.26 132.293 245.532ZM140.589 245.38C140.203 244.774 139.156 245.198 139.416 245.91C140.693 248.907 141.712 252.007 142.46 255.178C142.611 255.915 143.801 255.73 143.774 254.955C143.409 251.571 142.325 248.305 140.592 245.375L140.589 245.38ZM157.792 254.846C156.753 251.857 156.202 248.72 156.16 245.556C156.146 245.4 156.077 245.254 155.966 245.145C155.854 245.035 155.707 244.969 155.551 244.958C155.395 244.947 155.24 244.992 155.115 245.085C154.989 245.178 154.9 245.313 154.865 245.465C154.485 248.412 154.764 251.406 155.683 254.232C156.592 257.145 158.627 259.612 158.146 262.716C158.112 262.888 158.141 263.067 158.228 263.22C158.315 263.373 158.454 263.489 158.62 263.547C158.786 263.605 158.967 263.602 159.13 263.538C159.294 263.473 159.428 263.352 159.51 263.196C161.029 260.506 158.719 257.318 157.792 254.841V254.846ZM118.502 245.778C118.422 245.643 118.297 245.541 118.149 245.49C118.001 245.439 117.84 245.442 117.694 245.499C117.548 245.556 117.427 245.663 117.353 245.801C117.279 245.94 117.256 246.1 117.29 246.253C117.838 248.828 120.155 253.781 118.603 256.1C118.534 256.218 118.501 256.353 118.508 256.489C118.515 256.625 118.562 256.755 118.643 256.865C118.723 256.975 118.834 257.059 118.962 257.106C119.089 257.153 119.228 257.162 119.361 257.132C122.541 256.102 119.779 247.716 118.502 245.774V245.778ZM132.417 232.365C130.64 225.385 128.584 213.609 134.394 208.049C125.321 207.914 117.758 207.746 115.884 207.746C112.443 207.746 108.241 208.561 107.188 213.471C105.899 219.489 110.44 233.142 114.881 243.086C120.774 243.433 126.683 243.412 132.573 243.024C132.287 239.477 132.232 235.915 132.411 232.36L132.417 232.365ZM137.744 208.096C128.048 214.398 135.032 235.133 137.939 243.395C144.226 243.748 150.529 243.727 156.813 243.33C156.1 240.265 155.974 231.947 157.349 230.195C158.725 228.444 162.859 228.612 169.03 228.694C169.076 221.564 168.736 210.835 173.051 207.457C169.204 208.326 152.267 208.282 137.744 208.091V208.096ZM193.496 176.319C184.295 179.893 179.478 178.667 170.165 178.234C163.758 177.931 154.93 179.621 153.18 186.99C153.135 187.158 153.157 187.336 153.242 187.487C153.326 187.638 153.466 187.751 153.632 187.8C153.798 187.85 153.977 187.832 154.13 187.752C154.284 187.672 154.4 187.535 154.454 187.371C157.369 179.768 166.271 179.608 173.125 180.224C179.979 180.841 188.027 181.403 194.138 177.531C194.299 177.447 194.421 177.302 194.475 177.128C194.53 176.955 194.513 176.766 194.429 176.605C194.345 176.444 194.2 176.322 194.026 176.268C193.853 176.213 193.665 176.23 193.503 176.314L193.496 176.319ZM191.087 141.989C183.932 136.123 181.892 123.21 179.056 117.087C173.418 104.906 161.314 101.107 148.797 103.92C139.041 106.112 139.175 116.555 153.544 115.352C161.208 114.71 164.861 112.777 164.888 112.763C165.749 116.125 169.5 121.265 169.942 120.315C171.024 117.985 173.31 118.97 173.683 121.112C174.223 124.221 172.525 125.787 170.762 125.719C170.133 125.695 173.266 136.605 174.046 138.641C174.251 139.174 174.933 139.085 175.423 139.095C180.772 139.154 186.07 140.133 191.087 141.989ZM189.084 100.158C181.255 94.0239 167.464 87.1686 157.484 86.5838C156.831 86.503 156.168 86.589 155.557 86.8337C146.467 89.3411 133.547 95.6829 126.318 101.693C125.872 102.063 126.222 102.702 126.681 102.84C131.544 104.104 136.339 105.618 141.047 107.376C141.921 107.742 142.287 106.348 141.454 105.989C137.233 104.23 132.86 102.857 128.39 101.888C136.502 96.5055 147.426 89.885 156.954 87.9064C166.255 88.4866 179.574 94.8663 187.03 100.498C181.585 101.649 176.221 103.152 170.971 104.999C170.817 105.058 170.691 105.173 170.62 105.322C170.548 105.471 170.537 105.641 170.587 105.799C170.638 105.956 170.746 106.088 170.891 106.167C171.035 106.246 171.205 106.267 171.365 106.226C177.534 104.582 182.544 102.838 188.813 101.597C188.955 101.551 189.083 101.467 189.182 101.355C189.281 101.242 189.347 101.105 189.375 100.958C189.403 100.811 189.39 100.659 189.339 100.518C189.288 100.378 189.2 100.253 189.084 100.158ZM125.554 125.583C126.715 128.128 127.322 130.891 127.333 133.688C127.254 134.406 126.228 134.374 126.007 133.775C125.66 132.829 125.53 131.626 125.218 130.604C125.104 132.432 125.147 134.256 125.047 136.082C125.053 136.256 124.991 136.426 124.874 136.556C124.757 136.685 124.593 136.764 124.419 136.775C124.245 136.786 124.073 136.728 123.941 136.614C123.808 136.5 123.726 136.339 123.71 136.165C123.495 134.365 123.397 132.553 123.419 130.74C122.9 131.997 122.5 133.3 122.227 134.632C122.193 134.795 122.096 134.937 121.957 135.028C121.818 135.119 121.649 135.151 121.486 135.117C121.324 135.083 121.181 134.986 121.091 134.847C121 134.708 120.968 134.538 121.002 134.376C121.311 131.749 121.948 129.17 122.897 126.701C123.307 125.953 124.768 124.318 125.554 125.583ZM125.716 104.329C125.768 104.185 125.869 104.064 126.002 103.988C126.134 103.912 126.29 103.886 126.44 103.914C126.59 103.943 126.725 104.024 126.821 104.143C126.917 104.262 126.967 104.411 126.963 104.564C126.006 110.587 125.554 116.68 125.613 122.779C125.613 123.676 124.28 123.563 124.25 122.698C124.054 116.54 124.546 110.379 125.716 104.329ZM150.752 97.263C150.621 96.6676 149.593 96.5419 149.515 97.1979C149.399 98.1856 149.318 101.413 149.343 102.361C149.34 102.544 149.408 102.72 149.532 102.854C149.657 102.987 149.828 103.068 150.011 103.077C150.193 103.087 150.372 103.026 150.51 102.906C150.648 102.787 150.735 102.619 150.752 102.437C150.868 100.714 150.868 98.9856 150.752 97.263ZM165.093 96.354C161.016 94.4635 156.406 94.062 152.064 95.2193C151.981 95.2401 151.903 95.2776 151.835 95.3296C151.768 95.3815 151.711 95.4467 151.67 95.5213C151.628 95.5958 151.602 95.6781 151.594 95.763C151.585 95.8479 151.594 95.9337 151.62 96.015C151.646 96.0964 151.688 96.1716 151.744 96.2361C151.8 96.3005 151.868 96.3529 151.945 96.3899C152.022 96.4269 152.106 96.4478 152.191 96.4512C152.276 96.4547 152.361 96.4407 152.441 96.4101C156.599 95.6189 160.9 96.119 164.765 97.8433C164.551 99.5351 164.528 101.246 164.694 102.943C164.7 103.126 164.778 103.3 164.911 103.425C165.044 103.551 165.222 103.619 165.405 103.613C165.589 103.608 165.762 103.53 165.888 103.396C166.014 103.263 166.081 103.085 166.076 102.902C165.811 97.2812 166.676 97.2236 165.093 96.354ZM162.382 138.956C164.708 137.937 166.768 136.399 168.404 134.458C168.889 133.905 168.015 133.134 167.474 133.594C164.78 135.879 161.963 138.58 158.128 138.17C154.045 137.732 152.859 133.571 152.012 130.195C151.811 129.389 150.555 129.589 150.726 130.426C151.544 134.394 153.06 138.789 157.612 139.544C158.762 139.729 159.939 139.674 161.067 139.38C161.275 140.724 161.037 142.025 161.143 143.168C161.17 143.321 161.251 143.46 161.372 143.559C161.493 143.657 161.646 143.709 161.802 143.704C161.958 143.699 162.107 143.639 162.221 143.533C162.336 143.427 162.409 143.283 162.426 143.128C162.583 141.74 162.568 140.338 162.382 138.954V138.956ZM164.537 128.82C164.495 128.665 164.4 128.53 164.267 128.44C164.134 128.35 163.974 128.31 163.814 128.328C163.655 128.347 163.507 128.422 163.399 128.54C163.29 128.658 163.228 128.812 163.223 128.972C163.464 131.37 161.135 131.926 159.322 132.414C159.165 132.459 159.032 132.563 158.951 132.704C158.869 132.845 158.846 133.012 158.885 133.17C158.924 133.328 159.023 133.465 159.161 133.551C159.299 133.638 159.466 133.667 159.625 133.634C161.911 133.42 165.215 132.287 164.537 128.819V128.82ZM157.289 128.419C156.803 128.557 156.292 128.574 155.798 128.469C156.004 127.748 156.218 127.033 156.386 126.303C156.434 126.144 156.417 125.972 156.339 125.825C156.261 125.679 156.128 125.569 155.97 125.52C155.811 125.471 155.639 125.487 155.492 125.564C155.345 125.641 155.234 125.773 155.184 125.931C154.927 126.629 154.699 127.336 154.5 128.052C154.414 128.236 154.375 128.438 154.385 128.641C154.396 128.843 154.455 129.04 154.558 129.214C154.662 129.389 154.806 129.535 154.979 129.641C155.151 129.748 155.347 129.81 155.55 129.823C156.29 129.965 157.055 129.923 157.775 129.701C157.868 129.675 157.954 129.631 158.029 129.57C158.103 129.51 158.164 129.434 158.208 129.349C158.252 129.263 158.277 129.169 158.282 129.073C158.287 128.977 158.273 128.881 158.239 128.791C158.204 128.701 158.152 128.62 158.084 128.551C158.017 128.483 157.936 128.429 157.846 128.394C157.757 128.359 157.661 128.343 157.565 128.347C157.469 128.351 157.375 128.375 157.289 128.417V128.419ZM151.811 125.465C151.776 124.915 151.547 124.298 150.912 124.253C149.315 124.144 149.932 127.081 151.18 126.933C151.851 126.855 151.844 125.963 151.811 125.463V125.465ZM160.893 122.457C160.852 122.311 160.779 122.175 160.678 122.061C160.578 121.946 160.453 121.856 160.313 121.796C160.172 121.737 160.02 121.71 159.868 121.718C159.716 121.726 159.568 121.768 159.434 121.841C159.188 122.044 159.021 122.327 158.963 122.641C158.906 122.955 158.961 123.279 159.119 123.556C159.795 125.124 161.779 124.747 160.893 122.457ZM167.226 119.2C166.055 118.886 164.823 118.884 163.652 119.193C161.193 114.173 155.698 114.97 156.13 120.949C155.79 120.898 155.444 120.919 155.113 121.009C154.782 121.099 154.473 121.256 154.206 121.471C153.954 120.705 153.511 120.015 152.919 119.466C152.327 118.918 151.606 118.529 150.823 118.335C147.213 117.747 146.544 122.548 147.187 125.153C147.688 127.178 149.244 129.32 151.591 129.03C155.116 128.593 154.432 123.229 154.535 123.091C154.708 122.8 154.973 122.576 155.288 122.454C155.603 122.332 155.95 122.319 156.274 122.417C156.728 124.909 158.698 127.846 161.605 127.157C164.397 126.495 164.787 122.741 164.131 120.45C165.121 120.344 166.119 120.336 167.111 120.429C167.246 120.401 167.369 120.33 167.461 120.227C167.554 120.123 167.61 119.993 167.622 119.855C167.635 119.717 167.602 119.579 167.529 119.461C167.457 119.343 167.348 119.252 167.22 119.2H167.226ZM161.602 125.634C163.622 124.688 162.966 120.902 162.216 119.517C161.625 118.42 160.167 116.726 158.748 117.403C157.513 117.991 157.172 119.779 157.536 121.524C158.107 124.36 159.333 126.695 161.596 125.634H161.602ZM153.098 122.877C152.836 121.23 151.994 119.741 150.352 119.696C148.262 119.641 148.099 123.204 148.412 124.678C148.694 125.993 149.737 127.771 151.318 127.654C153.236 127.515 153.279 124.057 153.092 122.877H153.098Z" fill="#191919"/>
</svg>
