<svg width="296" height="301" viewBox="0 0 296 301" fill="none" xmlns="http://www.w3.org/2000/svg">
<path d="M213.336 41.4312C206.664 33.2746 197.448 27.6859 187.22 25.5941C177.208 23.5126 164.965 23.323 155.86 28.5649C155.723 28.6423 155.604 28.75 155.512 28.8802C155.421 29.0105 155.359 29.1598 155.332 29.3174C134.445 38.6575 119.782 75.852 140.564 102.993C142.079 102.439 143.416 102.224 145.052 101.687C143.803 98.0357 144.082 94.1724 142.765 90.5378C141.707 87.6211 141.008 84.5434 141.374 82.9496C141.658 81.7155 144.436 82.1279 145.493 82.8066C147.895 84.3493 148.438 88.4278 149.258 91.5763C149.224 90.7169 150.754 89.6198 151.617 89.6077C152.045 89.6298 152.461 89.7528 152.834 89.967C153.207 90.1812 153.525 90.4807 153.765 90.8418C154.216 91.3281 154.558 91.9084 154.767 92.5425C154.731 92.1774 154.804 91.8099 154.977 91.4878C155.15 91.1657 155.413 90.9039 155.734 90.7365C156.116 90.4709 156.566 90.3244 157.029 90.3147C157.492 90.3051 157.947 90.4329 158.339 90.6823C159.464 91.1699 159.642 91.328 160.505 92.6508C160.382 91.4348 161.067 91.4167 162.264 91.5778C163.396 91.7866 164.404 92.434 165.076 93.3838C169.484 98.6724 167.694 112.297 165.217 118.581C174.59 120.507 184.323 119.366 193.02 115.322C201.717 111.278 208.932 104.538 213.631 96.0687C223 79.6853 225.74 57.0034 213.336 41.4312ZM198.958 50.0097C197.192 53.855 194.275 56.9537 191.706 60.2828C174.844 82.1309 179.481 87.6738 174.39 91.0631C174.036 91.2754 173.623 91.3625 173.216 91.3107C172.808 91.259 172.429 91.0713 172.137 90.7771C162.571 79.011 155.347 72.5982 153.553 69.7071C153.435 69.4946 153.389 69.2487 153.421 69.0069C153.453 68.7651 153.563 68.5408 153.733 68.3682C153.902 68.1957 154.123 68.0844 154.361 68.0514C154.598 68.0184 154.84 68.0655 155.049 68.1856C159.341 70.5755 170.243 82.8352 173.44 86.5827C174.397 84.4411 174.92 75.7678 189.453 57.1268C191.713 53.8881 194.435 51.0109 197.531 48.5905C198.468 47.9313 199.344 49.1624 198.958 50.0037V50.0097Z" fill="#38A1FF"/>
<path d="M93.0491 143.314C92.2055 142.731 90.9771 142.761 90.8291 144.208C90.6811 145.654 92.6406 147.419 93.7506 146.498C94.8606 145.577 93.8927 143.895 93.0491 143.314Z" fill="#191919"/>
<path d="M147.375 93.9029C146.887 90.9667 146.55 86.0438 143.785 84.3281C143.381 84.0768 142.699 84.3989 142.853 84.9301C143.307 86.5194 144.185 87.9206 144.629 89.5294C145.656 94.0398 146.386 98.6153 146.812 103.225C144.964 102.845 143.044 103.181 141.428 104.168C139.812 105.154 138.618 106.72 138.08 108.557C137.908 109.47 137.944 110.411 138.185 111.307C138.426 112.204 138.865 113.033 139.469 113.73C141.093 116.014 142.9 118.157 144.873 120.137C145.169 120.424 145.78 120.123 145.524 119.708C142.15 114.213 139.604 112.743 139.434 110.115C139.415 109.182 139.652 108.262 140.12 107.459C140.587 106.656 141.266 106.002 142.08 105.571C143.644 104.691 145.213 104.891 146.866 104.551C146.884 105.32 146.878 106.09 146.849 106.859C146.846 106.972 146.887 107.081 146.961 107.164C147.035 107.247 147.137 107.298 147.247 107.307C147.357 107.316 147.467 107.282 147.553 107.212C147.639 107.142 147.696 107.041 147.711 106.93C148.372 102.603 148.258 98.1893 147.375 93.9029Z" fill="#191919"/>
<path d="M150.685 94.815C150.743 94.6273 150.855 94.4615 151.006 94.339C151.158 94.2165 151.342 94.1429 151.535 94.1275C151.728 94.1121 151.921 94.1557 152.089 94.2528C152.258 94.3498 152.394 94.4958 152.48 94.672C153.133 95.9978 153.697 97.3669 154.169 98.7701C154.587 100.275 154.465 102.382 155.471 103.603C155.53 103.675 155.605 103.732 155.69 103.77C155.775 103.807 155.867 103.824 155.96 103.819C156.052 103.814 156.142 103.787 156.222 103.74C156.302 103.693 156.37 103.627 156.421 103.549C157.266 102.23 156.707 100.272 156.316 98.883C155.852 97.2009 155.159 95.593 154.257 94.1061C153.655 93.1234 152.814 92.0172 151.528 92.1496C150.98 92.2558 150.488 92.5615 150.144 93.0097C149.801 93.4578 149.63 94.0177 149.664 94.5847C149.641 95.1566 150.617 95.4576 150.685 94.815Z" fill="#191919"/>
<path d="M156.651 94.514C159.13 92.0955 159.759 97.9499 159.941 99.2382C160.573 103.765 160.089 104.126 160.909 105.162C160.962 105.225 161.028 105.274 161.103 105.307C161.177 105.34 161.258 105.356 161.34 105.352C161.421 105.349 161.501 105.326 161.572 105.287C161.644 105.248 161.706 105.193 161.754 105.126C162.661 103.886 162.158 101.834 162.001 100.384C161.875 98.5351 161.532 96.7086 160.98 94.9429C160.142 92.6328 157.522 91.4137 155.859 93.763C155.498 94.2672 156.192 94.9655 156.651 94.514Z" fill="#191919"/>
<path d="M162.264 95.2454C164.336 95.6337 164.301 99.1103 164.429 100.721C164.725 104.592 164.428 108.486 163.549 112.264C162.925 113.962 162.527 115.738 162.365 117.543C162.384 118.027 162.964 118.51 163.386 118.079C164.987 116.451 165.377 113.767 165.815 111.584C166.318 109.021 166.542 106.411 166.484 103.798C166.426 100.788 166.621 93.7705 162.207 94.064C161.506 94.1106 161.684 95.1355 162.264 95.2454Z" fill="#191919"/>
<path d="M147.429 188.93C147.537 189.022 147.519 189.003 147.429 188.93Z" fill="#191919"/>
<path d="M46.5001 256.72C48.6535 244.853 50.2564 232.64 48.507 220.624C48.3812 219.765 47.0122 219.98 47.027 220.821C47.4991 245.494 42.7024 261.95 38.3853 283.128C37.8466 285.778 36.744 288.838 36.8194 291.556C36.8949 294.237 39.3354 293.743 39.4938 292.289L39.6892 290.465C39.4982 289.111 44.3142 268.763 46.5001 256.72Z" fill="#191919"/>
<path d="M172.84 172.912C171.461 158.633 170.052 143.965 165.96 130.196C165.535 128.765 163.318 129.121 163.654 130.647C166.057 142.165 167.872 153.801 169.093 165.509C170.462 177.302 171.628 189.275 170.237 201.122C169.041 211.287 166.294 222.293 157.442 228.287C150.069 233.281 140.866 236.357 132.417 234.068C121.382 231.078 118.549 227.964 110.454 220.145C110.342 220.019 110.187 219.942 110.02 219.93C109.854 219.918 109.689 219.972 109.561 220.081C109.433 220.191 109.352 220.346 109.335 220.515C109.317 220.684 109.365 220.853 109.468 220.987C114.256 227.67 119.64 232.425 125.729 234.983C126.049 239.159 126.607 243.312 127.401 247.422C132.069 280.389 129.589 284.468 131.026 292.93C131.152 293.665 132.26 293.594 132.435 292.93C133.678 288.209 133.274 283.017 133.086 278.181C132.547 264.335 130.022 243.808 127.823 235.767C135.655 238.381 144.537 237.582 154.539 233.12C164.918 228.488 169.131 220.495 171.609 209.89C174.436 197.787 174.032 185.244 172.84 172.912Z" fill="#191919"/>
<path d="M279.348 20.2783C278.051 16.4301 275.071 11.9406 271.235 10.9007C268.577 10.3657 265.882 10.0427 263.175 9.93448C226.216 6.11931 199.338 7.93885 169.655 8.03818C169.481 8.03321 169.308 8.08313 169.162 8.18116C137.094 9.18048 110.09 7.17732 75.332 12.5833C72.6931 12.9941 70.004 13.0995 67.8003 14.9281C64.2586 17.8749 62.5803 22.4982 61.9054 27.1502C59.3391 44.8144 60.3041 86.9408 61.3771 106.966C61.8788 116.335 62.1171 128.026 69.1382 134.079C67.7471 135.443 66.8378 137.236 66.5511 139.179C64.9853 148.146 70.041 152.441 72.887 158.99C74.1099 161.175 76.1246 162.787 78.5007 163.482C78.7581 165.881 78.4129 168.307 77.4972 170.533C62.8541 172.038 54.1739 176.193 42.4212 184.045C36.3694 187.881 30.6577 192.246 25.3509 197.09C15.6022 206.432 9.546 218.889 12.0117 232.703C14.6846 247.682 26.2004 260.863 39.0069 268.155C40.1702 268.817 41.0182 267.165 40.0281 266.383C34.9309 262.361 29.7169 258.616 25.3509 253.731C14.3841 241.459 11.8385 227.624 15.1789 216.812C19.2015 203.795 30.2171 195.102 41.3127 187.57C47.0881 183.342 53.3096 179.782 59.8615 176.958C72.5466 172.024 86.4187 171.69 99.7934 172.894C107.695 173.608 116.531 176.401 124.114 178.854C131.63 181.286 144.74 189.502 147.52 189.824C147.52 189.824 150.236 190.536 148.629 188.608C147.418 187.154 143.473 185.011 138.439 182.63C138.597 182.58 138.74 182.489 138.854 182.367C138.968 182.245 139.049 182.095 139.09 181.932C139.381 179.448 139.398 176.94 139.144 174.452C138.768 148.82 144.213 131.35 145.814 123.449C145.84 123.347 145.836 123.24 145.801 123.141C145.767 123.042 145.704 122.956 145.62 122.894C148.611 123.055 151.622 122.894 154.613 123.001C157.534 123.107 160.738 123.884 163.623 123.452C163.768 123.421 163.9 123.342 163.998 123.229C164.096 123.115 164.156 122.972 164.168 122.821C164.18 122.67 164.144 122.52 164.065 122.392C163.986 122.263 163.868 122.164 163.729 122.11C160.935 120.952 157.324 121.196 154.349 121.143C151.194 120.984 148.03 121.176 144.916 121.715C144.79 121.744 144.678 121.816 144.597 121.918C144.517 122.021 144.473 122.148 144.473 122.279C144.473 122.41 144.517 122.537 144.597 122.64C144.678 122.742 144.79 122.814 144.916 122.843C143.498 123.667 136.748 148.879 137.138 175.6C137.156 176.901 137.063 180.889 137.754 182.293C127.582 177.533 113.116 172.193 105.249 171.234C101.253 170.747 97.1886 170.375 93.1231 170.181C92.3906 168.161 92.0674 166.01 92.1729 163.86C94.3026 164.161 96.5729 163.876 97.6637 162.016C99.4589 158.955 97.2656 155.108 97.1013 151.904C97.0971 151.772 97.0467 151.645 96.9592 151.547C96.8718 151.449 96.7529 151.386 96.6238 151.369C96.4947 151.352 96.3638 151.382 96.2544 151.453C96.1451 151.525 96.0644 151.634 96.0268 151.761C94.9612 154.46 96.9622 157.113 96.5197 159.851C95.8892 163.753 91.683 160.878 89.3579 161.783C89.2171 161.827 89.0939 161.917 89.0064 162.037C88.9189 162.158 88.8717 162.304 88.8717 162.454C88.8717 162.604 88.9189 162.75 89.0064 162.871C89.0939 162.992 89.2171 163.081 89.3579 163.125C89.9215 163.335 90.4973 163.508 91.0821 163.645C90.8246 165.13 90.8246 166.65 91.0821 168.136C91.1718 168.794 91.2953 169.447 91.4521 170.092C87.485 169.954 83.5134 170.031 79.5544 170.324C79.7325 169.606 79.862 168.876 79.9422 168.14C80.1475 166.714 80.1175 165.263 79.8534 163.846C81.0967 164.193 82.3848 164.346 83.6733 164.298C87.5094 164.06 89.7413 159.376 88.0733 155.816C90.2075 155.816 92.09 153.385 90.5183 151.913C90.4393 151.838 90.341 151.788 90.2348 151.768C90.1287 151.749 90.0192 151.76 89.9193 151.802C89.8193 151.843 89.7332 151.913 89.671 152.002C89.6087 152.092 89.573 152.198 89.5681 152.307C89.093 156.354 84.6367 152.13 84.1128 150.142C83.58 148.121 85.5706 145.457 87.7388 147.153C88.2657 147.565 88.8103 146.599 88.6712 146.044C88.4921 145.329 88.3545 144.594 88.1606 143.878C88.4835 143.612 88.7835 143.319 89.0575 143.002C90.5657 142.188 91.9975 141.236 93.3347 140.156C94.6349 143.663 96.7708 146.787 99.5507 149.248C99.1811 149.488 98.7651 149.643 98.3309 149.705C97.8968 149.767 97.4547 149.732 97.0347 149.604C96.8224 149.545 96.5953 149.573 96.4035 149.683C96.2117 149.794 96.0709 149.977 96.012 150.193C95.9531 150.409 95.981 150.64 96.0896 150.835C96.1981 151.03 96.3783 151.173 96.5907 151.233C97.4372 151.475 98.3333 151.473 99.1787 151.227C100.024 150.98 100.785 150.499 101.377 149.838C101.53 149.68 101.615 149.468 101.615 149.247C101.615 149.026 101.53 148.814 101.377 148.656C96.197 144.211 94.7881 139.551 94.2493 139.325C94.4255 139.164 94.6016 138.985 94.7777 138.824C102.997 139.197 111.231 139.054 119.433 138.395C125.824 137.855 132.149 138.672 138.862 138.556C138.985 138.073 139.09 137.572 139.215 137.071C132.851 137.071 129.2 136.755 123.287 136.57C118.287 136.419 116.352 137.614 96.3613 137.107C100.618 131.839 100.741 125.518 98.3149 121.876C97.4004 120.411 96.0688 119.262 94.4971 118.585C92.9255 117.907 91.1883 117.732 89.5163 118.082C86.1878 118.985 84.3481 122.221 82.6876 125.005C79.3783 130.56 78.3793 130.41 73.4302 131.752C72.4332 132.011 71.4788 132.416 70.5975 132.956C65.6543 129.007 64.4318 122.451 63.7688 115.95C62.2236 100.787 61.5487 54.9566 62.9414 35.5074C63.2374 31.3205 63.3336 26.4774 64.9128 22.5509C65.8277 19.8759 67.5297 17.5519 69.7879 15.8943C70.8017 15.2712 71.2472 15.1493 79.0098 14.0145C109.129 9.61392 135.936 11.0286 164.486 10.3649C204.067 9.44385 232.68 8.50925 267.772 12.5125C270.482 12.8211 272.421 13.2079 274.371 15.4112C277.157 18.5566 278.141 22.3899 278.842 26.5602C281.802 44.1687 283.315 97.1598 282.344 113.248C282.036 118.349 281.249 124.197 278.261 128.352C276.217 131.195 273.035 131.737 269.955 132.235C257.72 134.217 206.096 134.735 180.695 135.847C179.767 135.888 178.436 136.02 170.699 136.148C170.768 136.525 170.716 137.169 170.786 137.527C170.934 137.527 247.894 135.996 257.724 135.451C261.032 135.266 264.359 135.044 267.667 134.645C270.708 134.496 273.699 133.8 276.501 132.587C279.866 130.824 281.66 126.879 282.766 123.192C284.407 117.718 284.5 111.775 284.542 106.048C284.645 91.8847 283.833 33.5856 279.348 20.2783Z" fill="#191919"/>
</svg>
